<svg width="16" height="16" viewBox="0 0 16 16" fill="none" xmlns="http://www.w3.org/2000/svg">
<path fill-rule="evenodd" clip-rule="evenodd" d="M8 0C3.58172 0 0 3.58173 0 8C0 12.4183 3.58172 16 8 16C12.4183 16 16 12.4183 16 8C16 3.58173 12.4183 0 8 0ZM6.24191 3.75887C6.69703 3.73816 6.84245 3.7331 8.00122 3.7331H7.99988C9.15901 3.7331 9.3039 3.73816 9.75901 3.75887C10.2132 3.77967 10.5235 3.85159 10.7955 3.9571C11.0764 4.06599 11.3137 4.21176 11.551 4.4491C11.7884 4.68626 11.9341 4.92431 12.0435 5.20493C12.1484 5.47622 12.2204 5.78627 12.2417 6.24049C12.2621 6.69561 12.2675 6.84104 12.2675 7.99981C12.2675 9.15857 12.2621 9.30365 12.2417 9.75875C12.2204 10.2128 12.1484 10.5229 12.0435 10.7943C11.9341 11.0749 11.7884 11.3129 11.551 11.5501C11.314 11.7874 11.0763 11.9335 10.7957 12.0425C10.5243 12.148 10.2139 12.2199 9.75963 12.2407C9.30452 12.2615 9.15954 12.2665 8.00068 12.2665C6.84201 12.2665 6.69667 12.2615 6.24156 12.2407C5.78742 12.2199 5.47728 12.148 5.20581 12.0425C4.92536 11.9335 4.68732 11.7874 4.45025 11.5501C4.213 11.3129 4.06722 11.0749 3.95815 10.7942C3.85273 10.5229 3.78082 10.2129 3.75993 9.75866C3.73931 9.30355 3.73415 9.15857 3.73415 7.99981C3.73415 6.84104 3.73949 6.69552 3.75984 6.24041C3.78029 5.78635 3.85229 5.47622 3.95807 5.20485C4.0674 4.92431 4.21318 4.68626 4.45051 4.4491C4.68767 4.21185 4.92572 4.06608 5.20634 3.9571C5.47764 3.85159 5.78768 3.77967 6.24191 3.75887ZM7.61506 4.50204L7.85561 4.50199L7.99781 4.50204C9.13703 4.50204 9.27205 4.50613 9.72192 4.52658C10.1379 4.54559 10.3637 4.6151 10.5141 4.6735C10.7132 4.75084 10.8552 4.84329 11.0044 4.99262C11.1538 5.14196 11.2462 5.28418 11.3237 5.4833C11.3821 5.63351 11.4517 5.8593 11.4707 6.27531C11.4911 6.72509 11.4955 6.8602 11.4955 7.99887C11.4955 9.13756 11.4911 9.27267 11.4707 9.72245C11.4516 10.1385 11.3821 10.3642 11.3237 10.5145C11.2464 10.7136 11.1538 10.8554 11.0044 11.0046C10.8551 11.1539 10.7133 11.2464 10.5141 11.3237C10.3639 11.3824 10.1379 11.4517 9.72192 11.4707C9.27214 11.4912 9.13703 11.4956 7.99781 11.4956C6.85851 11.4956 6.72349 11.4912 6.27371 11.4707C5.8577 11.4515 5.63192 11.382 5.48143 11.3236C5.28232 11.2463 5.1401 11.1538 4.99076 11.0045C4.84143 10.8552 4.74898 10.7133 4.67147 10.5141C4.61307 10.3639 4.54347 10.1381 4.52453 9.7221C4.50409 9.27231 4.5 9.13719 4.5 7.99781C4.5 6.85842 4.50409 6.72402 4.52453 6.27423C4.54356 5.85823 4.61307 5.63245 4.67147 5.48205C4.7488 5.28293 4.84143 5.14071 4.99076 4.99138C5.1401 4.84204 5.28232 4.74959 5.48143 4.67209C5.63183 4.61342 5.8577 4.54409 6.27371 4.52498C6.66731 4.50719 6.81985 4.50186 7.61506 4.50098V4.50204ZM10.2754 5.21067C9.99268 5.21067 9.76335 5.43974 9.76335 5.7225C9.76335 6.00517 9.99268 6.23451 10.2754 6.23451C10.558 6.23451 10.7874 6.00517 10.7874 5.7225C10.7874 5.43982 10.558 5.21048 10.2754 5.21048V5.21067ZM5.80676 7.99964C5.80676 6.78962 6.78779 5.80855 7.9978 5.80851C9.20786 5.80851 10.1887 6.78958 10.1887 7.99964C10.1887 9.2097 9.20795 10.1903 7.99789 10.1903C6.78783 10.1903 5.80676 9.2097 5.80676 7.99964ZM9.4226 7.99981C9.4226 7.21429 8.78579 6.57757 8.00036 6.57757C7.21484 6.57757 6.57812 7.21429 6.57812 7.99981C6.57812 8.78524 7.21484 9.42205 8.00036 9.42205C8.78579 9.42205 9.4226 8.78524 9.4226 7.99981Z" fill="#4F4F4F"/>
</svg>
